Coordinates
version=1
nRows=10
nColumns=40
inDegrees=yes

Units are S.I. units (second, meters, Newtons, ...)
Angles are in degrees.

endheader
time	pelvis_tilt	pelvis_list	pelvis_rotation	pelvis_tx	pelvis_ty	pelvis_tz	hip_flexion_r	hip_adduction_r	hip_rotation_r	knee_angle_r	knee_angle_r_beta	ankle_angle_r	subtalar_angle_r	mtp_angle_r	hip_flexion_l	hip_adduction_l	hip_rotation_l	knee_angle_l	knee_angle_l_beta	ankle_angle_l	subtalar_angle_l	mtp_angle_l	lumbar_extension	lumbar_bending	lumbar_rotation	arm_flex_r	arm_add_r	arm_rot_r	elbow_flex_r	pro_sup_r	wrist_flex_r	wrist_dev_r	arm_flex_l	arm_add_l	arm_rot_l	elbow_flex_l	pro_sup_l	wrist_flex_l	wrist_dev_l
     43.43778571	     -5.79973260	     -4.54728166	     -3.60175802	      0.98351419	      0.92484299	      0.41971007	     30.10322460	     -0.31396423	    -13.38556326	     12.56654633	     12.56654633	      1.78225359	      4.78559913	      8.97032303	      3.39457042	     -4.03297205	     -9.93178674	     15.36622057	     15.36622057	     18.03118367	    -11.37957195	     -0.22212807	     -9.56764303	      7.30972124	      2.28431306	    -13.15430581	    -12.53370916	    -11.72087363	     24.02283885	     47.22223781	      0.00000000	      0.00000000	     24.68704964	    -17.09536092	     -8.35350765	     82.56817347	     47.88351883	      0.00000000	      0.00000000
     43.45057143	     -5.87759626	     -4.51913857	     -3.60430491	      0.98488615	      0.92330016	      0.42165465	     29.82402097	     -0.08993524	    -13.70806193	     12.48835411	     12.48835411	      1.99434638	      4.77616832	      8.93841112	      2.83487620	     -4.10909629	     -9.89026284	     15.39399395	     15.39399395	     18.43550174	    -11.38565828	     -0.35656579	     -9.20166739	      7.21929673	      2.06130764	    -13.74987069	    -12.42930785	    -11.76120777	     23.86402977	     47.22494706	      0.00000000	      0.00000000	     24.76443522	    -17.08709853	     -8.32773210	     82.73967767	     47.88678266	      0.00000000	      0.00000000
     43.46335714	     -5.80254755	     -4.61466188	     -3.62654223	      0.98664053	      0.92210578	      0.42384878	     29.23156199	      0.21298249	    -14.31298910	     12.65899629	     12.65899629	      2.07479481	      5.17885443	      8.45659730	      2.02703161	     -4.37124961	    -10.17339604	     15.36338714	     15.36338714	     18.98665584	    -10.82654354	     -0.39583797	     -9.09052997	      7.24487819	      2.34929538	    -14.50506935	    -12.22652321	    -11.94189382	     23.92226948	     47.22088624	      0.00000000	      0.00000000	     24.78688441	    -16.74984464	     -7.91424479	     83.51493760	     47.88213495	      0.00000000	      0.00000000
     43.47614286	     -5.88632227	     -4.64834300	     -3.60904215	      0.98848152	      0.92075230	      0.42619887	     28.75728992	      0.48339397	    -14.46481779	     13.06336974	     13.06336974	      2.18212726	      5.00080105	      8.24631272	      1.46650307	     -4.55635828	    -10.13391806	     15.43963736	     15.43963736	     19.35421141	    -10.83601001	     -0.47157415	     -8.67211463	      7.19661424	      2.14029519	    -14.82662248	    -11.98935071	    -11.95589722	     23.85749109	     47.21966916	      0.00000000	      0.00000000	     24.60955691	    -16.62925847	     -7.80820902	     83.52542427	     47.87548609	      0.00000000	      0.00000000
     43.48892857	     -5.75306702	     -4.62603488	     -3.57091216	      0.99072587	      0.91942026	      0.42879742	     28.20585833	      0.68345685	    -14.22192518	     13.92326366	     13.92326366	      0.96445419	      3.90076737	      3.42940277	      0.86145300	     -4.88285042	    -10.90658184	     16.06499682	     16.06499682	     20.77825645	     -9.17161182	      0.87405705	     -8.52314518	      7.09924198	      2.44379525	    -15.43536332	    -11.61931197	    -12.58294947	     24.42230192	     47.20263864	      0.00000000	      0.00000000	     24.42690403	    -16.64675982	     -6.57483243	     83.80635713	     47.83763495	      0.00000000	      0.00000000
     43.50171429	     -5.68888944	     -4.54680153	     -3.52090637	      0.99300309	      0.91829548	      0.43132698	     27.77552960	      0.75838216	    -13.99484796	     15.07880659	     15.07880659	      1.09292364	      3.26693808	      2.48618839	      0.20994729	     -4.97063618	    -10.83911694	     16.30672594	     16.30672594	     21.14801674	     -9.17710115	      1.02227086	     -8.24482766	      6.95011461	      2.44240606	    -15.42763493	    -11.32339656	    -12.61126838	     24.29335413	     47.20106473	      0.00000000	      0.00000000	     24.07842435	    -16.30938175	     -6.48998525	     83.58220637	     47.83477081	      0.00000000	      0.00000000
     43.51450000	     -5.55183534	     -4.54586096	     -3.43890914	      0.99540489	      0.91738037	      0.43404755	     27.07630377	      1.00710107	    -13.46965875	     15.81442206	     15.81442206	      0.41012648	      2.06558672	     -0.46266268	     -0.28772777	     -5.26963756	    -11.03343940	     17.06290114	     17.06290114	     21.93273276	     -8.68960281	      1.82418468	     -8.03692653	      6.88163603	      2.49003995	    -15.12078542	    -11.02793826	    -12.69466678	     23.70603442	     47.20337856	      0.00000000	      0.00000000	     23.70315640	    -16.04592234	     -6.03585566	     83.14612426	     47.83083283	      0.00000000	      0.00000000
     43.52728571	     -5.34987179	     -4.53803849	     -3.31515871	      0.99777589	      0.91687166	      0.43666792	     26.43911401	      1.11639810	    -13.24635453	     16.83528762	     16.83528762	      0.79493025	      1.67555721	     -0.91837884	     -0.78465319	     -5.51459585	    -10.92276545	     17.84818166	     17.84818166	     22.05792270	     -8.91958304	      1.72355248	     -7.95263185	      6.82930100	      2.45977847	    -14.79522048	    -10.77986247	    -12.66138494	     23.75370788	     47.19769882	      0.00000000	      0.00000000	     23.11114935	    -15.70158371	     -5.84835357	     82.86255932	     47.81312758	      0.00000000	      0.00000000
     43.54007143	     -5.12571011	     -4.46732948	     -3.19044557	      1.00015974	      0.91686499	      0.43929759	     25.62398021	      1.19970316	    -13.00529853	     17.44262421	     17.44262421	      1.24495691	      1.44305185	     -1.21773691	     -1.22258633	     -5.71220408	    -10.82484781	     18.74482137	     18.74482137	     21.95390741	     -9.16608939	      1.63636774	     -7.87373392	      6.65765646	      2.51235650	    -14.32880662	    -10.41379279	    -12.60015964	     23.87138007	     47.18953815	      0.00000000	      0.00000000	     22.26173725	    -15.17703313	     -5.57958969	     82.50828015	     47.78489024	      0.00000000	      0.00000000
     43.55285714	     -5.00639673	     -4.53626033	     -2.93613262	      1.00185694	      0.91649609	      0.44184014	     25.35516968	      1.33659459	    -12.63800288	     18.66847439	     18.66847439	      1.68921099	      0.41748044	     -1.85875981	     -0.74922366	     -6.24060076	    -10.48316940	     21.06375571	     21.06375571	     21.93460394	     -9.89033870	      1.13430672	     -7.79512873	      6.73477270	      2.39473455	    -13.51294538	    -10.29433402	    -12.48594731	     23.82693968	     47.18600905	      0.00000000	      0.00000000	     21.72123218	    -14.93874284	     -5.36907808	     81.69466546	     47.75719344	      0.00000000	      0.00000000
